<svg xmlns="http://www.w3.org/2000/svg" version="1.1" xmlns:xlink="http://www.w3.org/1999/xlink" xmlns:svgjs="http://svgjs.dev/svgjs" width="1920" height="1080" preserveAspectRatio="none" viewBox="0 0 1920 1080"><g mask="url(&quot;#SvgjsMask2528&quot;)" fill="none"><rect width="1920" height="1080" x="0" y="0" fill="url(&quot;#SvgjsLinearGradient2529&quot;)"></rect><path d="M559 147L558 436" stroke-width="8" stroke="url(&quot;#SvgjsLinearGradient2530&quot;)" stroke-linecap="round" class="Up"></path><path d="M1413 191L1412 467" stroke-width="10" stroke="url(&quot;#SvgjsLinearGradient2531&quot;)" stroke-linecap="round" class="Down"></path><path d="M1384 654L1383 334" stroke-width="8" stroke="url(&quot;#SvgjsLinearGradient2531&quot;)" stroke-linecap="round" class="Down"></path><path d="M283 49L282 598" stroke-width="8" stroke="url(&quot;#SvgjsLinearGradient2530&quot;)" stroke-linecap="round" class="Up"></path><path d="M1704 905L1703 1537" stroke-width="6" stroke="url(&quot;#SvgjsLinearGradient2530&quot;)" stroke-linecap="round" class="Up"></path><path d="M1466 706L1465 1148" stroke-width="10" stroke="url(&quot;#SvgjsLinearGradient2530&quot;)" stroke-linecap="round" class="Up"></path><path d="M634 831L633 1319" stroke-width="10" stroke="url(&quot;#SvgjsLinearGradient2531&quot;)" stroke-linecap="round" class="Down"></path><path d="M118 287L117 -483" stroke-width="8" stroke="url(&quot;#SvgjsLinearGradient2530&quot;)" stroke-linecap="round" class="Up"></path><path d="M1513 920L1512 1708" stroke-width="6" stroke="url(&quot;#SvgjsLinearGradient2530&quot;)" stroke-linecap="round" class="Up"></path><path d="M750 932L749 647" stroke-width="8" stroke="url(&quot;#SvgjsLinearGradient2531&quot;)" stroke-linecap="round" class="Down"></path><path d="M614 853L613 194" stroke-width="6" stroke="url(&quot;#SvgjsLinearGradient2530&quot;)" stroke-linecap="round" class="Up"></path><path d="M104 772L103 421" stroke-width="8" stroke="url(&quot;#SvgjsLinearGradient2530&quot;)" stroke-linecap="round" class="Up"></path><path d="M774 925L773 1240" stroke-width="8" stroke="url(&quot;#SvgjsLinearGradient2531&quot;)" stroke-linecap="round" class="Down"></path><path d="M1734 333L1733 -131" stroke-width="6" stroke="url(&quot;#SvgjsLinearGradient2530&quot;)" stroke-linecap="round" class="Up"></path><path d="M399 757L398 1090" stroke-width="8" stroke="url(&quot;#SvgjsLinearGradient2530&quot;)" stroke-linecap="round" class="Up"></path><path d="M212 144L211 656" stroke-width="10" stroke="url(&quot;#SvgjsLinearGradient2531&quot;)" stroke-linecap="round" class="Down"></path><path d="M1368 332L1367 -34" stroke-width="6" stroke="url(&quot;#SvgjsLinearGradient2531&quot;)" stroke-linecap="round" class="Down"></path><path d="M591 966L590 435" stroke-width="6" stroke="url(&quot;#SvgjsLinearGradient2530&quot;)" stroke-linecap="round" class="Up"></path><path d="M101 948L100 178" stroke-width="8" stroke="url(&quot;#SvgjsLinearGradient2530&quot;)" stroke-linecap="round" class="Up"></path><path d="M44 197L43 -133" stroke-width="8" stroke="url(&quot;#SvgjsLinearGradient2531&quot;)" stroke-linecap="round" class="Down"></path><path d="M1786 97L1785 485" stroke-width="6" stroke="url(&quot;#SvgjsLinearGradient2531&quot;)" stroke-linecap="round" class="Down"></path><path d="M1224 634L1223 -11" stroke-width="6" stroke="url(&quot;#SvgjsLinearGradient2531&quot;)" stroke-linecap="round" class="Down"></path><path d="M540 880L539 207" stroke-width="10" stroke="url(&quot;#SvgjsLinearGradient2530&quot;)" stroke-linecap="round" class="Up"></path><path d="M1103 162L1102 -353" stroke-width="6" stroke="url(&quot;#SvgjsLinearGradient2530&quot;)" stroke-linecap="round" class="Up"></path><path d="M1085 730L1084 1526" stroke-width="6" stroke="url(&quot;#SvgjsLinearGradient2530&quot;)" stroke-linecap="round" class="Up"></path><path d="M701 139L700 -363" stroke-width="6" stroke="url(&quot;#SvgjsLinearGradient2531&quot;)" stroke-linecap="round" class="Down"></path><path d="M132 160L131 794" stroke-width="8" stroke="url(&quot;#SvgjsLinearGradient2530&quot;)" stroke-linecap="round" class="Up"></path><path d="M326 802L325 1133" stroke-width="8" stroke="url(&quot;#SvgjsLinearGradient2531&quot;)" stroke-linecap="round" class="Down"></path><path d="M803 825L802 215" stroke-width="6" stroke="url(&quot;#SvgjsLinearGradient2530&quot;)" stroke-linecap="round" class="Up"></path><path d="M245 222L244 -530" stroke-width="6" stroke="url(&quot;#SvgjsLinearGradient2530&quot;)" stroke-linecap="round" class="Up"></path><path d="M1738 411L1737 -43" stroke-width="6" stroke="url(&quot;#SvgjsLinearGradient2530&quot;)" stroke-linecap="round" class="Up"></path><path d="M682 509L681 933" stroke-width="6" stroke="url(&quot;#SvgjsLinearGradient2530&quot;)" stroke-linecap="round" class="Up"></path><path d="M934 896L933 1423" stroke-width="10" stroke="url(&quot;#SvgjsLinearGradient2531&quot;)" stroke-linecap="round" class="Down"></path><path d="M211 621L210 1046" stroke-width="6" stroke="url(&quot;#SvgjsLinearGradient2531&quot;)" stroke-linecap="round" class="Down"></path><path d="M1027 1026L1026 508" stroke-width="8" stroke="url(&quot;#SvgjsLinearGradient2531&quot;)" stroke-linecap="round" class="Down"></path><path d="M159 864L158 470" stroke-width="10" stroke="url(&quot;#SvgjsLinearGradient2530&quot;)" stroke-linecap="round" class="Up"></path><path d="M1271 397L1270 40" stroke-width="8" stroke="url(&quot;#SvgjsLinearGradient2531&quot;)" stroke-linecap="round" class="Down"></path><path d="M1180 865L1179 1310" stroke-width="6" stroke="url(&quot;#SvgjsLinearGradient2530&quot;)" stroke-linecap="round" class="Up"></path><path d="M405 612L404 1167" stroke-width="10" stroke="url(&quot;#SvgjsLinearGradient2531&quot;)" stroke-linecap="round" class="Down"></path><path d="M1258 961L1257 495" stroke-width="10" stroke="url(&quot;#SvgjsLinearGradient2530&quot;)" stroke-linecap="round" class="Up"></path><path d="M1325 424L1324 1081" stroke-width="6" stroke="url(&quot;#SvgjsLinearGradient2530&quot;)" stroke-linecap="round" class="Up"></path><path d="M892 612L891 926" stroke-width="6" stroke="url(&quot;#SvgjsLinearGradient2531&quot;)" stroke-linecap="round" class="Down"></path><path d="M433 265L432 -431" stroke-width="8" stroke="url(&quot;#SvgjsLinearGradient2531&quot;)" stroke-linecap="round" class="Down"></path><path d="M150 837L149 179" stroke-width="8" stroke="url(&quot;#SvgjsLinearGradient2530&quot;)" stroke-linecap="round" class="Up"></path><path d="M1692 866L1691 1426" stroke-width="8" stroke="url(&quot;#SvgjsLinearGradient2531&quot;)" stroke-linecap="round" class="Down"></path><path d="M1843 963L1842 231" stroke-width="6" stroke="url(&quot;#SvgjsLinearGradient2531&quot;)" stroke-linecap="round" class="Down"></path><path d="M1847 498L1846 -180" stroke-width="6" stroke="url(&quot;#SvgjsLinearGradient2531&quot;)" stroke-linecap="round" class="Down"></path><path d="M995 390L994 1069" stroke-width="6" stroke="url(&quot;#SvgjsLinearGradient2531&quot;)" stroke-linecap="round" class="Down"></path></g><defs><mask id="SvgjsMask2528"><rect width="1920" height="1080" fill="#ffffff"></rect></mask><linearGradient x1="50%" y1="100%" x2="50%" y2="0%" gradientUnits="userSpaceOnUse" id="SvgjsLinearGradient2529"><stop stop-color="rgba(0, 0, 0, 1)" offset="0"></stop><stop stop-color="rgba(0, 0, 0, 1)" offset="1"></stop></linearGradient><linearGradient x1="0%" y1="100%" x2="0%" y2="0%" id="SvgjsLinearGradient2530"><stop stop-color="rgba(255, 36, 0, 0)" offset="0"></stop><stop stop-color="rgba(255, 36, 0, 0.25)" offset="1"></stop></linearGradient><linearGradient x1="0%" y1="0%" x2="0%" y2="100%" id="SvgjsLinearGradient2531"><stop stop-color="rgba(255, 36, 0, 0)" offset="0"></stop><stop stop-color="rgba(255, 36, 0, 0.25)" offset="1"></stop></linearGradient></defs></svg>