<svg width="49" height="17" viewBox="0 0 49 17" fill="none" xmlns="http://www.w3.org/2000/svg">
<path fill-rule="evenodd" clip-rule="evenodd" d="M0 3.10074L1.24627 3.10644C1.93172 3.10958 2.49579 3.11524 2.49976 3.11901C2.50373 3.1228 2.49994 4.26145 2.49135 5.64935C2.48275 7.03725 2.47534 8.97152 2.47487 9.94773L2.47403 11.7227L2.50121 11.9331C2.58006 12.5439 2.72915 13.0495 2.98937 13.5885C3.49812 14.6425 4.4849 15.6583 5.57813 16.2536C6.58626 16.8025 7.68052 17.036 8.89775 16.9618C10.2163 16.8815 11.3947 16.4194 12.3894 15.5926C12.5727 15.4402 12.887 15.1409 13.0419 14.971C13.1019 14.9053 13.1548 14.8515 13.1596 14.8515C13.1644 14.8515 13.214 14.9001 13.2698 14.9595C13.3936 15.0913 13.6315 15.3181 13.7843 15.4499C14.0945 15.7176 14.3386 15.8924 14.7768 16.1606C14.7998 16.1747 14.8806 16.2194 14.9562 16.2599C15.6267 16.6185 16.3335 16.8338 17.1213 16.9191C17.4335 16.9529 18.0701 16.9555 18.3833 16.9241C19.3629 16.8261 20.1713 16.5695 20.8667 16.1357C21.1457 15.9617 21.7027 15.5493 21.7027 15.5168C21.7027 15.5128 21.6458 15.4485 21.5763 15.3739C21.3087 15.0867 21.0347 14.7238 20.8473 14.4079C20.6593 14.0911 20.4692 13.6836 20.3563 13.3554C20.3315 13.2834 20.3076 13.2204 20.3031 13.2154C20.2985 13.2105 20.2646 13.2415 20.2277 13.2845C20.1178 13.4122 19.8516 13.6512 19.717 13.743C19.2579 14.0561 18.7354 14.2197 18.0802 14.2558C17.1899 14.3048 16.4314 14.0845 15.7696 13.5848C15.6207 13.4723 15.3424 13.2076 15.2272 13.0687C15.0967 12.9115 14.9802 12.7368 14.8912 12.5652C14.7926 12.3749 14.7483 12.264 14.7682 12.2569C14.7762 12.254 16.209 12.2529 17.9522 12.2545L21.1217 12.2574L21.1321 12.3029C21.249 12.8133 21.3963 13.2249 21.6148 13.6512C21.9127 14.2325 22.2966 14.7389 22.8148 15.234C24.0995 16.4615 25.6455 16.8963 27.4458 16.8758C28.8082 16.8604 30.1157 16.3593 31.0787 15.4549C31.5644 16.3235 32.5192 16.8717 33.5645 16.8822L35.4708 16.9015V14.4381L34.9474 14.4331C34.397 14.4279 34.318 14.4218 34.1121 14.3685C33.6182 14.2406 33.3023 13.9465 33.1764 13.4976C33.1052 13.2438 33.1096 13.429 33.1055 10.5081L33.1018 7.83716H35.4708V5.23166H33.1023V3.10394L30.2614 3.10972L30.2584 4.6258C30.2567 5.45964 30.2527 6.14188 30.2495 6.14188C30.2463 6.14188 30.2073 6.11987 30.1628 6.09296C29.9797 5.98215 29.7213 5.85274 29.4746 5.74832C28.6853 5.41411 27.7579 5.2471 26.816 5.26956C25.457 5.30196 24.2557 5.7429 23.2159 6.59097C23.0196 6.75108 22.7003 7.05152 22.5401 7.22686L22.4272 7.35042L22.3375 7.25531C22.0324 6.93193 21.6575 6.60456 21.3199 6.36685C20.262 5.6219 19.0581 5.24301 17.7493 5.24305C16.3216 5.24311 15.0547 5.69208 13.9414 6.59257C13.763 6.73688 13.3264 7.1492 13.1921 7.30027L13.0979 7.40621L13.0492 7.35147C12.948 7.23758 12.7414 7.03008 12.598 6.89842C11.7162 6.08841 10.7135 5.5906 9.58535 5.40277C9.05119 5.31385 8.38824 5.29916 7.7933 5.36307C6.92328 5.45653 6.05316 5.74563 5.35946 6.1717C5.31484 6.19911 5.27536 6.22153 5.27174 6.22153C5.26812 6.22153 5.26825 6.07689 5.27204 5.90011C5.31023 4.11953 5.2881 2.33639 5.29313 0.55542H0.0158734C0.0158453 1.40389 0.00738259 2.25231 0 3.10074ZM36.9421 5.36675C36.7515 5.41407 36.5545 5.56818 36.4723 5.73418C36.3846 5.91138 36.3918 5.42149 36.3918 11.1481C36.3918 16.9128 36.3835 16.3926 36.4789 16.5696C36.5387 16.6806 36.6732 16.8133 36.7807 16.8674C37.1891 17.073 37.6759 16.8882 37.8348 16.4672L37.8691 16.3761V5.92002L37.8358 5.83025C37.789 5.7046 37.7515 5.64845 37.6481 5.54963C37.4993 5.40746 37.3365 5.3444 37.1238 5.34644C37.0666 5.34699 36.9849 5.35614 36.9421 5.36675ZM39.2309 7.13207C39.0888 7.15639 38.9414 7.23129 38.8382 7.33157C38.7196 7.44696 38.6565 7.56553 38.6294 7.72405C38.6209 7.7738 38.6169 8.851 38.6168 11.0774C38.6167 14.7398 38.6097 14.4472 38.7027 14.6297C38.7412 14.7051 38.772 14.7453 38.8429 14.8122C38.9926 14.9536 39.1506 15.0162 39.3584 15.0162C39.5696 15.0162 39.7243 14.9539 39.8793 14.8066C39.9804 14.7104 40.0447 14.6071 40.0783 14.4867C40.1015 14.4037 40.1016 7.74512 40.0784 7.66081C40.0119 7.41918 39.8098 7.21916 39.5617 7.14963C39.4804 7.12683 39.3133 7.11797 39.2309 7.13207ZM27.6056 7.96115C28.0954 8.03762 28.501 8.20475 28.9157 8.50106C29.0449 8.5934 29.3904 8.91542 29.4973 9.0432C29.8746 9.49408 30.1002 9.96955 30.2099 10.5451C30.2343 10.6727 30.2371 10.7233 30.2373 11.04C30.2374 11.359 30.2348 11.4074 30.2095 11.5463C30.0773 12.2718 29.7657 12.8689 29.2633 13.3596C28.8507 13.7626 28.3579 14.0389 27.8212 14.1681C27.5524 14.2328 27.4158 14.2473 27.0736 14.2475C26.7976 14.2476 26.7357 14.2443 26.5951 14.2216C25.894 14.1084 25.3837 13.8556 24.8716 13.3679C24.4068 12.9251 24.0995 12.431 23.9581 11.899C23.8451 11.4737 23.8244 10.9321 23.9041 10.4851C24.023 9.81834 24.3406 9.26252 24.8875 8.76402C25.1485 8.52619 25.3889 8.36485 25.692 8.22428C26.047 8.05958 26.3159 7.98935 26.7984 7.93531C26.8215 7.93274 26.9776 7.93204 27.1453 7.93377C27.3881 7.93628 27.482 7.94186 27.6056 7.96115ZM18.0495 7.96283C18.7615 8.00732 19.389 8.23833 19.9109 8.64802C20.0608 8.76571 20.2942 8.99188 20.4009 9.12285C20.5016 9.24653 20.6211 9.42196 20.6988 9.56032L20.7598 9.66898H14.8482L14.8859 9.59787C15.0186 9.34751 15.269 9.02685 15.4841 8.83185C16.1918 8.19007 17.0474 7.90022 18.0495 7.96283ZM8.62242 7.9849C9.32124 8.02621 9.89532 8.23264 10.4227 8.63224C10.6699 8.81956 10.9781 9.14317 11.1553 9.4016C11.4246 9.79421 11.5738 10.1702 11.6513 10.6514C11.6786 10.8209 11.6827 10.8825 11.6829 11.1196C11.6831 11.4271 11.6601 11.625 11.5929 11.8933C11.349 12.8675 10.5538 13.7509 9.59731 14.1101C9.1948 14.2613 8.6664 14.3343 8.21572 14.3009C7.44737 14.244 6.82883 13.9517 6.24144 13.3678C5.80779 12.9368 5.53081 12.4651 5.39229 11.9218C5.32819 11.6703 5.30944 11.4961 5.30966 11.1538C5.30988 10.8096 5.32933 10.6275 5.39398 10.364C5.53849 9.77509 5.83469 9.27515 6.30126 8.8326C6.89938 8.2653 7.53548 8.00573 8.40113 7.97574C8.42415 7.97495 8.52374 7.97907 8.62242 7.9849ZM34.6873 8.6519C34.5465 8.67954 34.4142 8.74859 34.3105 8.8486C34.213 8.94261 34.1598 9.02684 34.1203 9.14964C34.0952 9.22745 34.0952 9.23197 34.0952 11.0343C34.0952 12.834 34.0953 12.8413 34.1201 12.919C34.1581 13.0376 34.2209 13.1358 34.3154 13.2246C34.4581 13.3587 34.6277 13.4261 34.8248 13.427C35.166 13.4286 35.4567 13.2143 35.5444 12.8964C35.5654 12.8203 35.5665 12.7299 35.5665 11.0344C35.5665 9.27312 35.5662 9.25124 35.5419 9.16304C35.4702 8.90277 35.2468 8.70413 34.9659 8.65103C34.8549 8.63004 34.7977 8.63021 34.6873 8.6519ZM45.8955 8.6519C45.6166 8.70665 45.3781 8.92632 45.3205 9.18146C45.2963 9.28895 45.2964 12.7802 45.3207 12.8878C45.3739 13.124 45.6003 13.346 45.8477 13.4045C45.9706 13.4336 46.0444 13.4368 46.1572 13.418C46.4586 13.3677 46.6946 13.1552 46.7575 12.8775C46.7831 12.7649 46.7824 9.30157 46.7569 9.18689C46.7129 8.98931 46.5607 8.80483 46.368 8.71556C46.263 8.66693 46.1213 8.63289 46.0306 8.63454C46.0024 8.63504 45.9416 8.64285 45.8955 8.6519ZM41.4039 8.69698C41.2035 8.7468 41.0164 8.89162 40.9272 9.06596C40.8378 9.24071 40.8417 9.1506 40.8417 11.0741C40.8417 12.9458 40.84 12.8986 40.9116 13.0495C41.0618 13.3661 41.4436 13.5357 41.7889 13.4392C42.0568 13.3643 42.2722 13.134 42.3135 12.8783C42.3214 12.8296 42.3245 12.1824 42.3223 11.0229L42.3189 9.24231L42.2912 9.16836C42.2276 8.99853 42.0804 8.83087 41.9331 8.76018C41.768 8.68099 41.5654 8.65679 41.4039 8.69698ZM48.1145 9.68667C47.8407 9.74259 47.6111 9.95649 47.547 10.2153C47.5197 10.3251 47.5197 11.7434 47.5469 11.8535C47.6072 12.0974 47.8228 12.3091 48.0726 12.3696C48.262 12.4154 48.4145 12.4003 48.5929 12.318C48.7871 12.2285 48.949 12.0307 48.9865 11.8372C49.0043 11.7456 49.0046 10.325 48.9868 10.2314C48.9504 10.0389 48.789 9.84178 48.5929 9.75019C48.4281 9.67321 48.2779 9.65328 48.1145 9.68667ZM43.6895 9.78299C43.6033 9.80031 43.5194 9.8294 43.4493 9.8663C43.3527 9.91719 43.212 10.0564 43.159 10.1537C43.079 10.3005 43.0789 10.3016 43.0787 11.0707C43.0786 11.5381 43.0828 11.7809 43.0919 11.8217C43.1351 12.0158 43.2977 12.2094 43.4915 12.2974C43.6126 12.3523 43.6996 12.3685 43.8433 12.3629C44.1528 12.3508 44.394 12.1804 44.5124 11.8904L44.5437 11.8137L44.5474 11.1263C44.5498 10.676 44.5466 10.4117 44.5382 10.3602C44.4964 10.1036 44.2917 9.88432 44.0188 9.80357C43.9334 9.77831 43.7651 9.76779 43.6895 9.78299Z" fill="#5B5B5B"/>
</svg>
