<svg width="108" height="60" viewBox="0 0 108 60" fill="none" xmlns="http://www.w3.org/2000/svg">
<path fill-rule="evenodd" clip-rule="evenodd" d="M0 6.19042L2.74688 6.20298C4.25767 6.2099 5.50093 6.22237 5.50968 6.23069C5.51843 6.23904 5.51008 8.74872 5.49115 11.8078C5.47219 14.8668 5.45584 19.1301 5.45482 21.2817L5.45297 25.1938L5.51287 25.6578C5.68667 27.0039 6.01528 28.1182 6.58882 29.3064C7.71015 31.6293 9.88509 33.8684 12.2947 35.1804C14.5167 36.3902 16.9285 36.9048 19.6114 36.7414C22.5175 36.5644 25.1149 35.5458 27.3073 33.7235C27.7113 33.3876 28.4039 32.7278 28.7455 32.3534C28.8776 32.2086 28.9943 32.0901 29.0049 32.0901C29.0155 32.0901 29.1248 32.1972 29.2478 32.3281C29.5207 32.6186 30.045 33.1184 30.3818 33.409C31.0655 33.9991 31.6035 34.3843 32.5693 34.9755C32.62 35.0065 32.798 35.105 32.9647 35.1942C34.4426 35.9848 36.0004 36.4591 37.7368 36.6472C38.4249 36.7217 39.828 36.7273 40.5183 36.6583C42.6773 36.4423 44.4592 35.8767 45.992 34.9206C46.6068 34.5371 47.8345 33.628 47.8345 33.5563C47.8345 33.5475 47.7092 33.4058 47.556 33.2415C46.966 32.6085 46.3623 31.8085 45.9491 31.1124C45.5347 30.4141 45.1158 29.516 44.8669 28.7924C44.8123 28.6338 44.7596 28.495 44.7496 28.484C44.7397 28.473 44.6649 28.5415 44.5834 28.6362C44.3412 28.9178 43.7546 29.4445 43.458 29.6468C42.4459 30.3368 41.2944 30.6976 39.8502 30.7771C37.8881 30.885 36.2162 30.3995 34.7575 29.2981C34.4293 29.0503 33.816 28.4667 33.5619 28.1606C33.2744 27.8141 33.0175 27.4291 32.8215 27.0509C32.6041 26.6315 32.5065 26.387 32.5502 26.3712C32.5679 26.3648 35.726 26.3625 39.5681 26.366L46.5538 26.3725L46.5768 26.4728C46.8345 27.5977 47.1593 28.5048 47.6408 29.4444C48.2974 30.7257 49.1435 31.8418 50.2856 32.933C53.1173 35.6386 56.5247 36.5969 60.4927 36.5519C63.4956 36.5178 66.3775 35.4133 68.5 33.4199C69.5705 35.3344 71.6749 36.5427 73.979 36.566L78.1805 36.6084V31.1789L77.027 31.1679C75.8139 31.1564 75.6397 31.1429 75.1859 31.0254C74.0973 30.7435 73.4009 30.0953 73.1235 29.1059C72.9667 28.5466 72.9763 28.9547 72.9673 22.5168L72.9632 19.6341C72.9609 17.9756 74.3047 16.6299 75.9632 16.6299H78.1805V10.8871H72.9603V6.19747L66.6986 6.21021L66.6919 9.55177C66.6882 11.3896 66.6795 12.8933 66.6724 12.8933C66.6654 12.8933 66.5794 12.8448 66.4813 12.7855C66.0777 12.5413 65.5081 12.256 64.9645 12.0259C63.2248 11.2893 61.1808 10.9212 59.1047 10.9707C56.1094 11.0421 53.4615 12.014 51.1697 13.8832C50.737 14.2361 50.0332 14.8983 49.6802 15.2847L49.4314 15.5571L49.2336 15.3474C48.5613 14.6347 47.7349 13.9131 46.9908 13.3892C44.659 11.7473 42.0057 10.9121 39.1209 10.9122C35.974 10.9124 33.1818 11.9019 30.7279 13.8867C30.3347 14.2048 29.3725 15.1135 29.0764 15.4465L28.8688 15.68L28.7615 15.5594C28.5385 15.3083 28.083 14.851 27.7671 14.5608C25.8236 12.7755 23.6134 11.6783 21.1269 11.2643C19.9496 11.0683 18.4884 11.0359 17.1771 11.1768C15.2595 11.3828 13.3417 12.02 11.8127 12.9591C11.7143 13.0195 11.6273 13.0689 11.6193 13.0689C11.6114 13.0689 11.6116 12.7501 11.62 12.3604C11.7042 8.4359 11.6554 4.50573 11.6665 0.580322H0.0349862C0.0349243 2.45041 0.0162718 4.3204 0 6.19042ZM81.4234 11.1849C81.0034 11.2892 80.5691 11.6289 80.3879 11.9947C80.1945 12.3853 80.2106 11.3055 80.2106 23.9274C80.2106 36.6334 80.1922 35.4869 80.4024 35.8768C80.5343 36.1216 80.8307 36.4141 81.0676 36.5333C81.9679 36.9865 83.0408 36.5791 83.3909 35.6511L83.4667 35.4505V12.4043L83.3931 12.2065C83.2901 11.9295 83.2074 11.8058 82.9794 11.588C82.6515 11.2746 82.2928 11.1356 81.8238 11.1401C81.6978 11.1413 81.5176 11.1615 81.4234 11.1849ZM86.4681 15.0758C86.155 15.1294 85.83 15.2945 85.6027 15.5155C85.3411 15.7698 85.202 16.0312 85.1424 16.3806C85.1237 16.4902 85.1148 18.8645 85.1147 23.7717C85.1144 31.8439 85.0989 31.1989 85.304 31.6011C85.3888 31.7673 85.4567 31.8559 85.6129 32.0034C85.9428 32.3152 86.2912 32.453 86.7491 32.453C87.2146 32.453 87.5557 32.3158 87.8973 31.991C88.1201 31.7791 88.2619 31.5513 88.3359 31.2861C88.387 31.1031 88.3871 16.427 88.336 16.2412C88.1896 15.7086 87.744 15.2677 87.1973 15.1145C87.0181 15.0642 86.6498 15.0447 86.4681 15.0758ZM60.8449 16.9031C61.9245 17.0717 62.8184 17.4401 63.7325 18.0932C64.0174 18.2967 64.7789 19.0064 65.0145 19.2881C65.846 20.2819 66.3432 21.3298 66.5851 22.5983C66.6388 22.8797 66.645 22.9912 66.6454 23.6892C66.6458 24.3923 66.64 24.4989 66.5842 24.8051C66.2927 26.4043 65.6061 27.7202 64.4987 28.8017C63.5893 29.69 62.5031 30.2989 61.3202 30.5838C60.7278 30.7264 60.4266 30.7584 59.6724 30.7588C59.0641 30.7591 58.9276 30.7517 58.6178 30.7017C57.0725 30.4522 55.9477 29.895 54.8191 28.82C53.7945 27.844 53.1172 26.755 52.8056 25.5825C52.5564 24.6451 52.5109 23.4513 52.6866 22.4662C52.9487 20.9966 53.6487 19.7715 54.8542 18.6727C55.4293 18.1485 55.9593 17.7929 56.6272 17.4831C57.4098 17.1201 58.0025 16.9653 59.066 16.8462C59.1167 16.8405 59.4608 16.839 59.8305 16.8428C60.3657 16.8483 60.5726 16.8606 60.8449 16.9031ZM39.7826 16.9069C41.3518 17.0049 42.7351 17.5141 43.8853 18.4171C44.2157 18.6765 44.7301 19.175 44.9652 19.4636C45.1872 19.7362 45.4506 20.1229 45.6218 20.4279L45.7564 20.6673H32.7267L32.8098 20.5106C33.1023 19.9588 33.6542 19.252 34.1282 18.8222C35.688 17.4077 37.5739 16.7689 39.7826 16.9069ZM19.0045 16.9555C20.5448 17.0466 21.8101 17.5015 22.9724 18.3823C23.5173 18.7952 24.1966 19.5084 24.5872 20.078C25.1807 20.9434 25.5096 21.7722 25.6804 22.8327C25.7405 23.2062 25.7497 23.3422 25.7501 23.8647C25.7505 24.5423 25.6998 24.9786 25.5517 25.57C25.0141 27.7172 23.2614 29.6642 21.1533 30.456C20.2661 30.7892 19.1015 30.9501 18.1081 30.8765C16.4146 30.7511 15.0513 30.1068 13.7566 28.8199C12.8008 27.8699 12.1904 26.8303 11.8851 25.6327C11.7438 25.0785 11.7024 24.6944 11.7029 23.9399C11.7034 23.1814 11.7463 22.7799 11.8888 22.1992C12.2073 20.9012 12.8601 19.7993 13.8885 18.8239C15.2068 17.5735 16.6088 17.0014 18.5168 16.9353C18.5675 16.9336 18.787 16.9426 19.0045 16.9555ZM76.4536 18.4256C76.1432 18.4865 75.8517 18.6387 75.6231 18.8592C75.4082 19.0664 75.2909 19.252 75.2038 19.5227C75.1487 19.6942 75.1485 19.7041 75.1485 23.6766C75.1485 27.6433 75.1487 27.6593 75.2036 27.8306C75.2873 28.092 75.4256 28.3085 75.6339 28.5042C75.9485 28.7999 76.3224 28.9484 76.7568 28.9504C77.5087 28.9539 78.1494 28.4814 78.3428 27.7808C78.389 27.6132 78.3914 27.4138 78.3914 23.6768C78.3914 19.7948 78.3908 19.7466 78.3373 19.5522C78.1793 18.9786 77.6868 18.5408 77.0677 18.4237C76.8229 18.3774 76.697 18.3778 76.4536 18.4256ZM101.157 18.4256C100.543 18.5463 100.017 19.0305 99.8902 19.5928C99.8368 19.8297 99.8371 27.5248 99.8905 27.7618C100.008 28.2826 100.507 28.7719 101.052 28.9008C101.323 28.9649 101.486 28.972 101.734 28.9305C102.399 28.8195 102.919 28.3513 103.057 27.7392C103.114 27.4911 103.112 19.8575 103.056 19.6048C102.959 19.1693 102.624 18.7627 102.199 18.5659C101.967 18.4587 101.655 18.3837 101.455 18.3874C101.393 18.3885 101.259 18.4057 101.157 18.4256ZM91.2575 18.525C90.8159 18.6348 90.4036 18.954 90.207 19.3382C90.0099 19.7234 90.0183 19.5248 90.0183 23.7644C90.0183 27.8896 90.0147 27.7858 90.1724 28.1182C90.5036 28.8161 91.3452 29.1899 92.1062 28.9772C92.6966 28.8122 93.1713 28.3046 93.2625 27.741C93.2799 27.6337 93.2866 26.2071 93.2818 23.6516L93.2744 19.7269L93.2133 19.5639C93.073 19.1896 92.7487 18.8201 92.4239 18.6643C92.06 18.4897 91.6136 18.4364 91.2575 18.525ZM106.048 20.7063C105.445 20.8296 104.939 21.3011 104.797 21.8714C104.737 22.1135 104.737 25.2394 104.797 25.4822C104.93 26.0197 105.405 26.4864 105.956 26.6196C106.373 26.7207 106.709 26.6874 107.103 26.5061C107.531 26.3088 107.888 25.8727 107.97 25.4462C108.009 25.2444 108.01 22.1133 107.971 21.907C107.891 21.4826 107.535 21.0482 107.103 20.8463C106.739 20.6767 106.409 20.6327 106.048 20.7063ZM96.2952 20.9186C96.1052 20.9568 95.9204 21.0209 95.7659 21.1023C95.5528 21.2144 95.2429 21.5213 95.126 21.7357C94.9496 22.0592 94.9494 22.0617 94.949 23.7569C94.9487 24.787 94.9581 25.3221 94.9781 25.412C95.0733 25.84 95.4316 26.2666 95.8589 26.4606C96.1258 26.5817 96.3175 26.6174 96.6341 26.605C97.3164 26.5782 97.8481 26.2027 98.1089 25.5635L98.1779 25.3944L98.186 23.8793C98.1913 22.8869 98.1844 22.3043 98.1658 22.1908C98.0736 21.6253 97.6225 21.142 97.021 20.964C96.8328 20.9083 96.4619 20.8851 96.2952 20.9186Z" fill="white"/>
<path d="M5.5903 52.826C5.5903 53.1496 5.5384 53.4549 5.4346 53.7419C5.3308 54.0349 5.18121 54.2883 4.98583 54.502C4.79655 54.7218 4.56148 54.8958 4.28061 55.0241C4.00585 55.1523 3.69751 55.2164 3.35559 55.2164H2.83355C2.1497 55.2164 1.6185 55.0057 1.23994 54.5844C0.861386 54.1631 0.672107 53.5862 0.672107 52.8535V51.269H1.12088V52.8443C1.12088 53.1252 1.15752 53.3816 1.23078 53.6136C1.30405 53.8456 1.41396 54.0441 1.5605 54.2089C1.70703 54.3799 1.89021 54.5112 2.11001 54.6028C2.33593 54.6943 2.60153 54.7401 2.90682 54.7401H3.3098C3.60898 54.7401 3.87153 54.6882 4.09744 54.5844C4.32946 54.4868 4.52179 54.3524 4.67443 54.1815C4.82708 54.0105 4.94309 53.809 5.02246 53.577C5.10184 53.3511 5.14153 53.113 5.14153 52.8626V50.3989H5.5903V52.826ZM3.37391 50.1791H2.69617V49.6205H3.37391V50.1791ZM6.73914 47.3216H7.19707V53H6.73914V47.3216ZM9.26084 52.8535C9.26084 53.2198 9.20589 53.5465 9.09598 53.8334C8.98608 54.1265 8.83344 54.3738 8.63805 54.5753C8.44267 54.7829 8.2137 54.9416 7.95115 55.0515C7.68861 55.1614 7.40164 55.2164 7.09024 55.2164H6.5682L6.52241 54.7401H6.9895C7.307 54.7401 7.58176 54.6882 7.81377 54.5844C8.04579 54.4806 8.23507 54.3402 8.38161 54.1631C8.53425 53.9922 8.64416 53.7907 8.71132 53.5587C8.78459 53.3328 8.82123 53.0977 8.82123 52.8535V50.3989H9.27916V51.7819C9.27916 51.9956 9.35243 52.1727 9.49897 52.3131C9.6455 52.4474 9.84699 52.5146 10.1034 52.5146H10.2042C10.3385 52.5146 10.4057 52.594 10.4057 52.7527C10.4057 52.9176 10.3385 53 10.2042 53H10.1034C9.94469 53 9.78899 52.9695 9.63635 52.9084C9.48981 52.8474 9.36464 52.7466 9.26084 52.6062V52.8535ZM10.9711 52.5146C11.2276 52.5146 11.4352 52.4444 11.5939 52.3039C11.7527 52.1635 11.8321 51.9773 11.8321 51.7453V50.3989H12.2808V51.7269C12.2808 52.1299 12.1618 52.4444 11.9236 52.6703C11.6916 52.8901 11.3833 53 10.9986 53H10.156C10.0767 53 10.0248 52.9817 10.0003 52.945C9.9698 52.9023 9.95454 52.8443 9.95454 52.771C9.95454 52.6856 9.9698 52.6214 10.0003 52.5787C10.0248 52.536 10.0767 52.5146 10.156 52.5146H10.9711ZM11.9878 54.6302H11.3924V54.0807H11.9878V54.6302ZM10.8612 54.6302H10.2568V54.0807H10.8612V54.6302ZM13.426 47.3216H13.884V53H13.426V47.3216ZM18.1026 52.8535C18.1026 53.2198 18.0446 53.5465 17.9286 53.8334C17.8187 54.1265 17.666 54.3738 17.4706 54.5753C17.2752 54.7829 17.0432 54.9416 16.7746 55.0515C16.512 55.1614 16.2251 55.2164 15.9137 55.2164H15.3916L15.3458 54.7401H15.8129C16.1304 54.7401 16.4052 54.6882 16.6372 54.5844C16.8692 54.4806 17.0585 54.3402 17.205 54.1631C17.3577 53.9922 17.4676 53.7907 17.5347 53.5587C17.608 53.3328 17.6446 53.0977 17.6446 52.8535V50.3989H18.1026V52.8535ZM22.5241 50.866C22.6768 51.0431 22.7867 51.2171 22.8538 51.3881C22.921 51.5529 22.9546 51.7147 22.9546 51.8735C22.9546 52.2032 22.8355 52.4749 22.5974 52.6886C22.3654 52.8962 22.0387 53 21.6174 53H19.0164L18.9706 52.5146H21.5716C21.8464 52.5146 22.0601 52.4505 22.2127 52.3223C22.3715 52.194 22.4509 52.0261 22.4509 51.8185C22.4509 51.7147 22.4234 51.6048 22.3684 51.4888C22.3196 51.3667 22.2463 51.2538 22.1486 51.15L20.3902 49.1625L20.7474 48.8237L22.5241 50.866ZM30.048 52.5146C30.3227 52.5146 30.5334 52.4444 30.6799 52.3039C30.8264 52.1635 30.8997 51.9773 30.8997 51.7453V50.3989H31.3668V51.7453C31.3668 51.8918 31.3912 52.0139 31.4401 52.1116C31.4889 52.2093 31.553 52.2887 31.6324 52.3497C31.7118 52.4108 31.8003 52.4535 31.898 52.478C31.9957 52.5024 32.0934 52.5146 32.1911 52.5146H32.3285C32.4078 52.5146 32.4597 52.536 32.4842 52.5787C32.5147 52.6214 32.53 52.6794 32.53 52.7527C32.53 52.8382 32.5147 52.9023 32.4842 52.945C32.4597 52.9817 32.4078 53 32.3285 53H32.1819C31.9621 53 31.7576 52.9573 31.5683 52.8718C31.379 52.7863 31.2264 52.6275 31.1104 52.3955C30.976 52.6275 30.8142 52.7863 30.625 52.8718C30.4418 52.9573 30.2494 53 30.048 53H26.7325C26.4822 53 26.2654 52.9634 26.0823 52.8901C25.9052 52.8107 25.7587 52.7069 25.6426 52.5787C25.5327 52.4505 25.4503 52.3009 25.3954 52.1299C25.3465 51.959 25.3221 51.7788 25.3221 51.5896V50.3898H25.7709V51.4888C25.7709 51.8002 25.8502 52.0506 26.009 52.2398C26.1739 52.423 26.4486 52.5146 26.8333 52.5146H30.048ZM29.2054 49.5747H28.5734V49.0251H29.2054V49.5747ZM28.1063 49.5747H27.4744V49.0251H28.1063V49.5747ZM32.9993 52.5146C33.274 52.5146 33.4847 52.4444 33.6312 52.3039C33.7839 52.1635 33.8602 51.9773 33.8602 51.7453V50.3989H34.3181V51.7453C34.3181 51.8918 34.3425 52.0139 34.3914 52.1116C34.4402 52.2093 34.5013 52.2887 34.5745 52.3497C34.6539 52.4108 34.7425 52.4535 34.8401 52.478C34.9378 52.5024 35.0355 52.5146 35.1332 52.5146H35.4355C35.5759 52.5146 35.6461 52.594 35.6461 52.7527C35.6461 52.9176 35.5759 53 35.4355 53H35.1241C34.9104 53 34.7089 52.9573 34.5196 52.8718C34.3303 52.7863 34.1777 52.6275 34.0617 52.3955C33.9273 52.6275 33.7686 52.7863 33.5854 52.8718C33.4022 52.9573 33.2069 53 32.9993 53H32.2849C32.2055 53 32.1536 52.9817 32.1292 52.945C32.0987 52.9023 32.0834 52.8443 32.0834 52.771C32.0834 52.6856 32.0987 52.6214 32.1292 52.5787C32.1536 52.536 32.2055 52.5146 32.2849 52.5146H32.9993ZM34.6661 54.6302H34.0708V54.0807H34.6661V54.6302ZM33.5396 54.6302H32.9351V54.0807H33.5396V54.6302ZM36.2025 52.5146C36.4589 52.5146 36.6665 52.4444 36.8253 52.3039C36.984 52.1635 37.0634 51.9773 37.0634 51.7453V50.3989H37.5122V51.7269C37.5122 52.1299 37.3931 52.4444 37.155 52.6703C36.923 52.8901 36.6146 53 36.23 53H35.3874C35.308 53 35.2561 52.9817 35.2317 52.945C35.2011 52.9023 35.1859 52.8443 35.1859 52.771C35.1859 52.6856 35.2011 52.6214 35.2317 52.5787C35.2561 52.536 35.308 52.5146 35.3874 52.5146H36.2025ZM36.5322 54.6394H35.8545V54.0807H36.5322V54.6394ZM47.076 51.7453C47.076 51.8918 47.0974 52.0139 47.1401 52.1116C47.189 52.2093 47.25 52.2887 47.3233 52.3497C47.4027 52.4108 47.4882 52.4535 47.5798 52.478C47.6774 52.5024 47.7782 52.5146 47.882 52.5146C48.1384 52.5146 48.343 52.4444 48.4956 52.3039C48.6483 52.1635 48.7246 51.9773 48.7246 51.7453V50.3989H49.1825V51.7269C49.1825 52.1299 49.0635 52.4444 48.8253 52.6703C48.5933 52.8901 48.285 53 47.9003 53C47.6805 53 47.476 52.9573 47.2867 52.8718C47.0974 52.7863 46.9448 52.6275 46.8287 52.3955C46.6944 52.6275 46.5235 52.7863 46.3159 52.8718C46.1144 52.9573 45.9068 53 45.6931 53C45.4794 53 45.2962 52.9664 45.1436 52.8993C44.997 52.8321 44.881 52.7375 44.7955 52.6153V52.8535C44.7955 53.1649 44.7436 53.464 44.6398 53.751C44.536 54.038 44.3864 54.2883 44.1911 54.502C44.0018 54.7218 43.7698 54.8958 43.495 55.0241C43.2202 55.1523 42.9119 55.2164 42.57 55.2164H42.0479C41.3641 55.2164 40.8329 55.0057 40.4543 54.5844C40.0758 54.1631 39.8865 53.5862 39.8865 52.8535V51.269H40.3353V52.8443C40.3353 53.1252 40.3719 53.3816 40.4452 53.6136C40.5184 53.8456 40.6283 54.0441 40.7749 54.2089C40.9214 54.3799 41.1046 54.5112 41.3244 54.6028C41.5503 54.6943 41.8159 54.7401 42.1212 54.7401H42.5242C42.8234 54.7401 43.0859 54.6882 43.3118 54.5844C43.5438 54.4868 43.7362 54.3524 43.8888 54.1815C44.0415 54.0105 44.1575 53.809 44.2368 53.577C44.3162 53.3511 44.3559 53.113 44.3559 52.8626V50.3989H44.8047V51.7819C44.8047 51.9956 44.881 52.1727 45.0336 52.3131C45.1924 52.4474 45.4092 52.5146 45.6839 52.5146C45.9831 52.5146 46.2151 52.4444 46.38 52.3039C46.5448 52.1635 46.6273 51.9773 46.6273 51.7453V50.3989H47.076V51.7453ZM47.1859 48.1734H46.5448V47.6239H47.1859V48.1734ZM47.7263 49.19H47.0943V48.6405H47.7263V49.19ZM46.6273 49.19H45.9953V48.6405H46.6273V49.19ZM51.014 54.7401C51.2949 54.7401 51.5452 54.6943 51.765 54.6028C51.9848 54.5112 52.168 54.386 52.3146 54.2273C52.4672 54.0685 52.5832 53.8823 52.6626 53.6686C52.7481 53.461 52.7969 53.2381 52.8091 53H51.7742C51.4628 53 51.2064 52.9664 51.0049 52.8993C50.8034 52.8321 50.6446 52.7375 50.5286 52.6153C50.4126 52.4871 50.3302 52.3345 50.2813 52.1574C50.2386 51.9742 50.2172 51.7727 50.2172 51.5529C50.2172 51.327 50.2478 51.1103 50.3088 50.9027C50.376 50.689 50.4737 50.5058 50.6019 50.3532C50.7301 50.1944 50.8889 50.0692 51.0781 49.9776C51.2674 49.88 51.4872 49.8311 51.7376 49.8311C51.939 49.8311 52.1314 49.8647 52.3146 49.9319C52.4977 49.999 52.6595 50.1059 52.8 50.2524C52.9404 50.3928 53.0503 50.576 53.1297 50.8019C53.2152 51.0278 53.2579 51.3026 53.2579 51.6262V52.8535C53.2579 53.1649 53.206 53.464 53.1022 53.751C53.0045 54.038 52.861 54.2883 52.6717 54.502C52.4886 54.7218 52.2596 54.8958 51.9848 55.0241C51.7162 55.1523 51.4109 55.2164 51.069 55.2164H50.0798L50.0249 54.7401H51.014ZM50.6568 51.5346C50.6568 51.7117 50.6752 51.8613 50.7118 51.9834C50.7484 52.1055 50.8125 52.2063 50.9041 52.2856C51.0018 52.365 51.13 52.423 51.2888 52.4596C51.4475 52.4963 51.649 52.5146 51.8933 52.5146H52.8091V51.7269C52.8091 51.2263 52.7084 50.863 52.5069 50.6371C52.3115 50.4112 52.0398 50.2982 51.6918 50.2982C51.3621 50.2982 51.1056 50.4112 50.9224 50.6371C50.7454 50.863 50.6568 51.1622 50.6568 51.5346ZM55.6666 51.7819C55.6666 51.9956 55.7399 52.1727 55.8864 52.3131C56.033 52.4474 56.2345 52.5146 56.4909 52.5146H56.5916C56.726 52.5146 56.7931 52.594 56.7931 52.7527C56.7931 52.9176 56.726 53 56.5916 53H56.4909C56.3321 53 56.1765 52.9695 56.0238 52.9084C55.8712 52.8474 55.746 52.7466 55.6483 52.6062V52.8535C55.6483 53.2198 55.5934 53.5465 55.4834 53.8334C55.3735 54.1265 55.2209 54.3738 55.0255 54.5753C54.8301 54.7829 54.5981 54.9416 54.3295 55.0515C54.0669 55.1614 53.783 55.2164 53.4777 55.2164H53.2487L53.1938 54.7401H53.3953C53.7128 54.7401 53.9845 54.6882 54.2104 54.5844C54.4424 54.4806 54.6317 54.3402 54.7782 54.1631C54.9248 53.9922 55.0316 53.7907 55.0988 53.5587C55.1721 53.3328 55.2087 53.0977 55.2087 52.8535V50.3989H55.6666V51.7819ZM58.3844 52.5146C58.5248 52.5146 58.65 52.5115 58.7599 52.5054C58.8698 52.4993 58.9858 52.4902 59.1079 52.478C58.711 52.3497 58.3966 52.2276 58.1646 52.1116C57.9387 51.9895 57.7677 51.8643 57.6517 51.7361C57.5418 51.6079 57.4716 51.4736 57.441 51.3331C57.4105 51.1866 57.3952 51.0217 57.3952 50.8386C57.3952 50.6676 57.4288 50.4936 57.496 50.3165C57.5632 50.1394 57.6608 49.9776 57.7891 49.8311C57.9234 49.6846 58.0852 49.5655 58.2745 49.4739C58.4699 49.3823 58.6927 49.3365 58.9431 49.3365C59.1751 49.3365 59.3857 49.3701 59.575 49.4373C59.7643 49.4983 59.9261 49.6021 60.0604 49.7487C60.1947 49.8891 60.2985 50.0723 60.3718 50.2982C60.4451 50.5241 60.4817 50.7989 60.4817 51.1225V51.5071C60.4817 51.9712 60.3382 52.3375 60.0512 52.6062C59.7704 52.8687 59.3247 53 58.7141 53H56.5435C56.4641 53 56.4122 52.9817 56.3878 52.945C56.3573 52.9023 56.342 52.8443 56.342 52.771C56.342 52.6856 56.3573 52.6214 56.3878 52.5787C56.4122 52.536 56.4641 52.5146 56.5435 52.5146H58.3844ZM58.8973 49.822C58.7324 49.822 58.5828 49.8525 58.4485 49.9135C58.3203 49.9746 58.2104 50.054 58.1188 50.1517C58.0272 50.2494 57.9539 50.3623 57.899 50.4905C57.8501 50.6126 57.8257 50.7378 57.8257 50.866C57.8257 50.9943 57.8379 51.1133 57.8623 51.2232C57.8868 51.3331 57.957 51.443 58.073 51.5529C58.1951 51.6628 58.3813 51.7788 58.6317 51.901C58.882 52.017 59.23 52.1482 59.6757 52.2948C59.7795 52.2093 59.865 52.1025 59.9322 51.9742C59.9993 51.8399 60.0329 51.6812 60.0329 51.498V51.1774C60.0329 50.75 59.9444 50.4173 59.7673 50.1791C59.5903 49.941 59.3002 49.822 58.8973 49.822ZM59.2819 48.3749H58.6042V47.8162H59.2819V48.3749ZM64.6808 52.4596C64.4244 52.6428 64.2076 52.8199 64.0305 52.9908C63.8596 53.1557 63.7191 53.3206 63.6092 53.4854C63.4993 53.6503 63.42 53.8151 63.3711 53.98C63.3284 54.1509 63.307 54.328 63.307 54.5112C63.307 55.0118 63.4444 55.3935 63.7191 55.656C64 55.9186 64.4579 56.0498 65.0929 56.0498H66.769L66.714 56.5261H65.0563C64.635 56.5261 64.2839 56.4711 64.0031 56.3612C63.7222 56.2574 63.4963 56.1139 63.3253 55.9308C63.1605 55.7476 63.0414 55.5339 62.9681 55.2897C62.8949 55.0515 62.8582 54.7981 62.8582 54.5295C62.8582 54.3036 62.8857 54.0899 62.9407 53.8884C63.0017 53.6869 63.0902 53.4885 63.2063 53.2931C63.3284 53.1038 63.481 52.9176 63.6642 52.7344C63.8535 52.5512 64.0794 52.3619 64.3419 52.1666L62.8674 50.2707L63.1421 49.7487H65.4868C65.7676 49.7487 66.0058 49.8158 66.2011 49.9502C66.3965 50.0784 66.4942 50.2707 66.4942 50.5272C66.4942 50.6126 66.482 50.7012 66.4576 50.7928C66.4332 50.8844 66.3751 50.9943 66.2836 51.1225C66.192 51.2446 66.0546 51.3942 65.8714 51.5713C65.6944 51.7422 65.4501 51.9559 65.1387 52.2124C65.2303 52.2856 65.325 52.3436 65.4227 52.3864C65.5203 52.4291 65.6272 52.4596 65.7432 52.478C65.8592 52.4963 65.9844 52.5085 66.1187 52.5146C66.2591 52.5146 66.4148 52.5146 66.5858 52.5146H67.2544C67.3338 52.5146 67.3857 52.536 67.4101 52.5787C67.4406 52.6214 67.4559 52.6794 67.4559 52.7527C67.4559 52.8382 67.4406 52.9023 67.4101 52.945C67.3857 52.9817 67.3338 53 67.2544 53H66.5217C66.3141 53 66.1248 52.9969 65.9539 52.9908C65.7829 52.9847 65.6241 52.9664 65.4776 52.9359C65.3311 52.8993 65.1937 52.8443 65.0655 52.771C64.9372 52.6978 64.809 52.594 64.6808 52.4596ZM66.0088 50.6371C66.0088 50.5088 65.9539 50.4081 65.8439 50.3348C65.7402 50.2555 65.5783 50.2158 65.3585 50.2158H63.3711L64.7724 52.0109C65.0166 51.8094 65.2181 51.6384 65.3769 51.498C65.5356 51.3575 65.6608 51.2354 65.7524 51.1316C65.8501 51.0278 65.9172 50.9393 65.9539 50.866C65.9905 50.7867 66.0088 50.7103 66.0088 50.6371ZM69.8665 52.4505C69.7138 52.5421 69.5642 52.6245 69.4177 52.6978C69.2773 52.7649 69.1246 52.8229 68.9598 52.8718C68.7949 52.9145 68.6087 52.9481 68.4011 52.9725C68.1996 52.9908 67.9676 53 67.705 53H67.2104C67.1311 53 67.0792 52.9817 67.0548 52.945C67.0242 52.9023 67.009 52.8443 67.009 52.771C67.009 52.6856 67.0242 52.6214 67.0548 52.5787C67.0792 52.536 67.1311 52.5146 67.2104 52.5146H67.7142C67.9523 52.5146 68.1629 52.5054 68.3461 52.4871C68.5293 52.4688 68.6972 52.4413 68.8498 52.4047C69.0025 52.3681 69.146 52.3192 69.2803 52.2581C69.4207 52.1971 69.5612 52.1238 69.7016 52.0383L71.4051 51.0492C71.3563 50.9027 71.3013 50.7683 71.2403 50.6462C71.1792 50.5241 71.0998 50.4203 71.0021 50.3348C70.9105 50.2494 70.7945 50.1822 70.6541 50.1333C70.5198 50.0845 70.3519 50.0601 70.1504 50.0601H68.0622L68.1172 49.5747H70.1962C70.3549 49.5747 70.5167 49.5899 70.6816 49.6205C70.8525 49.651 71.0113 49.7243 71.1578 49.8403C71.3105 49.9563 71.4509 50.1242 71.5791 50.344C71.7134 50.5638 71.8234 50.863 71.9088 51.2415L69.8665 52.4505ZM69.7749 54.6394H69.0971V54.0807H69.7749V54.6394ZM73.7903 52.8535C73.7903 53.2198 73.7353 53.5465 73.6254 53.8334C73.5155 54.1265 73.3629 54.3738 73.1675 54.5753C72.9721 54.7829 72.7432 54.9416 72.4806 55.0515C72.2181 55.1614 71.9311 55.2164 71.6197 55.2164H71.0976L71.0519 54.7401H71.5189C71.8364 54.7401 72.1112 54.6882 72.3432 54.5844C72.5752 54.4806 72.7645 54.3402 72.9111 54.1631C73.0637 53.9922 73.1736 53.7907 73.2408 53.5587C73.314 53.3328 73.3507 53.0977 73.3507 52.8535V50.3989H73.8086V51.7819C73.8086 51.9956 73.8819 52.1727 74.0284 52.3131C74.175 52.4474 74.3764 52.5146 74.6329 52.5146H74.7336C74.868 52.5146 74.9351 52.594 74.9351 52.7527C74.9351 52.9176 74.868 53 74.7336 53H74.6329C74.4741 53 74.3184 52.9695 74.1658 52.9084C74.0193 52.8474 73.8941 52.7466 73.7903 52.6062V52.8535ZM74.8503 52.5146C75.1068 52.5146 75.2961 52.4505 75.4182 52.3223C75.5464 52.194 75.6105 52.0322 75.6105 51.8369V51.4247C75.6105 50.8813 75.7448 50.4631 76.0135 50.17C76.2821 49.8708 76.6576 49.7212 77.14 49.7212C77.6407 49.7212 78.0131 49.8738 78.2573 50.1791C78.5016 50.4783 78.6237 50.8691 78.6237 51.3514C78.6237 51.8704 78.4894 52.2765 78.2207 52.5695C77.9521 52.8565 77.5766 53 77.0942 53C76.8439 53 76.6057 52.9542 76.3798 52.8626C76.16 52.7649 75.9799 52.5879 75.8395 52.3314C75.7845 52.4841 75.7174 52.6062 75.638 52.6978C75.5586 52.7832 75.4762 52.8504 75.3907 52.8993C75.3052 52.942 75.2167 52.9695 75.1251 52.9817C75.0335 52.9939 74.9419 53 74.8503 53H74.6855C74.6061 53 74.5542 52.9817 74.5298 52.945C74.4993 52.9023 74.484 52.8443 74.484 52.771C74.484 52.6856 74.4993 52.6214 74.5298 52.5787C74.5542 52.536 74.6061 52.5146 74.6855 52.5146H74.8503ZM78.1749 51.4156C78.1749 51.0492 78.0955 50.7561 77.9368 50.5363C77.778 50.3104 77.5033 50.1975 77.1125 50.1975C76.7645 50.1975 76.4989 50.3043 76.3157 50.518C76.1325 50.7256 76.041 51.04 76.041 51.4613C76.041 51.8094 76.1417 52.0719 76.3432 52.249C76.5447 52.4261 76.795 52.5146 77.0942 52.5146C77.4483 52.5146 77.717 52.42 77.9002 52.2307C78.0833 52.0353 78.1749 51.7636 78.1749 51.4156ZM86.7519 53C86.5931 53 86.4374 52.9695 86.2848 52.9084C86.1321 52.8474 86.007 52.7466 85.9093 52.6062V52.8443C85.9093 53.1618 85.8574 53.464 85.7536 53.751C85.6498 54.038 85.5002 54.2883 85.3048 54.502C85.1155 54.7218 84.8835 54.8958 84.6087 55.0241C84.334 55.1523 84.0256 55.2164 83.6837 55.2164H83.1617C82.4778 55.2164 81.9466 55.0057 81.5681 54.5844C81.1895 54.1631 81.0002 53.5862 81.0002 52.8535V51.269H81.449V52.8443C81.449 53.1252 81.4856 53.3816 81.5589 53.6136C81.6322 53.8456 81.7421 54.0441 81.8886 54.2089C82.0352 54.3799 82.2183 54.5112 82.4381 54.6028C82.664 54.6943 82.9296 54.7401 83.2349 54.7401H83.6379C83.9371 54.7401 84.1996 54.6882 84.4256 54.5844C84.6576 54.4868 84.8499 54.3524 85.0026 54.1815C85.1552 54.0105 85.2712 53.809 85.3506 53.577C85.43 53.3511 85.4696 53.113 85.4696 52.8626V50.3989H85.9184V51.7819C85.9184 51.9956 85.9947 52.1727 86.1474 52.3131C86.3 52.4474 86.5015 52.5146 86.7519 52.5146H86.8526C86.993 52.5146 87.0632 52.594 87.0632 52.7527C87.0632 52.9176 86.993 53 86.8526 53H86.7519ZM83.702 50.1791H83.0243V49.6205H83.702V50.1791ZM86.8103 53C86.7309 53 86.679 52.9817 86.6546 52.945C86.6241 52.9023 86.6088 52.8443 86.6088 52.771C86.6088 52.6856 86.6241 52.6214 86.6546 52.5787C86.679 52.536 86.7309 52.5146 86.8103 52.5146H88.8893C89.1458 52.5146 89.3503 52.4444 89.503 52.3039C89.6617 52.1635 89.7411 51.9773 89.7411 51.7453V50.3989H90.199V51.7269C90.199 52.1299 90.0799 52.4444 89.8418 52.6703C89.6098 52.8901 89.3015 53 88.9168 53H86.8103ZM89.0908 54.6302H88.4955V54.0807H89.0908V54.6302ZM87.9643 54.6302H87.3598V54.0807H87.9643V54.6302ZM92.1116 51.7819C92.1116 51.9956 92.1849 52.1727 92.3314 52.3131C92.4779 52.4474 92.6794 52.5146 92.9359 52.5146H93.0366C93.1709 52.5146 93.2381 52.594 93.2381 52.7527C93.2381 52.9176 93.1709 53 93.0366 53H92.9359C92.7771 53 92.6214 52.9695 92.4688 52.9084C92.3161 52.8474 92.191 52.7466 92.0933 52.6062V52.8535C92.0933 53.2198 92.0383 53.5465 91.9284 53.8334C91.8185 54.1265 91.6659 54.3738 91.4705 54.5753C91.2751 54.7829 91.0431 54.9416 90.7744 55.0515C90.5119 55.1614 90.228 55.2164 89.9227 55.2164H89.6937L89.6388 54.7401H89.8402C90.1577 54.7401 90.4295 54.6882 90.6554 54.5844C90.8874 54.4806 91.0767 54.3402 91.2232 54.1631C91.3697 53.9922 91.4766 53.7907 91.5438 53.5587C91.617 53.3328 91.6537 53.0977 91.6537 52.8535V50.3989H92.1116V51.7819ZM93.7028 52.5146C93.9776 52.5146 94.1882 52.4444 94.3348 52.3039C94.4874 52.1635 94.5637 51.9773 94.5637 51.7453V50.3989H95.0217V51.7453C95.0217 51.8918 95.0461 52.0139 95.0949 52.1116C95.1438 52.2093 95.2048 52.2887 95.2781 52.3497C95.3575 52.4108 95.446 52.4535 95.5437 52.478C95.6414 52.5024 95.7391 52.5146 95.8368 52.5146H96.139C96.2795 52.5146 96.3497 52.594 96.3497 52.7527C96.3497 52.9176 96.2795 53 96.139 53H95.8276C95.6139 53 95.4124 52.9573 95.2232 52.8718C95.0339 52.7863 94.8812 52.6275 94.7652 52.3955C94.6309 52.6275 94.4722 52.7863 94.289 52.8718C94.1058 52.9573 93.9104 53 93.7028 53H92.9885C92.9091 53 92.8572 52.9817 92.8328 52.945C92.8022 52.9023 92.787 52.8443 92.787 52.771C92.787 52.6856 92.8022 52.6214 92.8328 52.5787C92.8572 52.536 92.9091 52.5146 92.9885 52.5146H93.7028ZM95.5712 49.19H94.9392V48.6405H95.5712V49.19ZM94.4722 49.19H93.8402V48.6405H94.4722V49.19ZM96.9244 47.2117L99.6628 46.0761L99.7727 46.4424L96.9335 47.6056L96.9244 47.2117ZM98.5638 52.5146C98.8813 52.5146 99.1011 52.4535 99.2232 52.3314C99.3453 52.2032 99.4064 52.0414 99.4064 51.846C99.4064 51.7361 99.385 51.6109 99.3423 51.4705C99.3056 51.324 99.1957 51.1591 99.0126 50.9759L96.9335 48.8969V48.4115L99.9742 47.1934L100.102 47.6514L97.4006 48.7321L99.1683 50.4997C99.3209 50.6523 99.443 50.7897 99.5346 50.9118C99.6262 51.0278 99.6964 51.1408 99.7452 51.2507C99.8002 51.3606 99.8368 51.4675 99.8552 51.5713C99.8735 51.6689 99.8826 51.7758 99.8826 51.8918C99.8826 52.2765 99.7636 52.5573 99.5254 52.7344C99.2934 52.9115 98.9851 53 98.6004 53H96.091C96.0116 53 95.9597 52.9817 95.9353 52.945C95.9047 52.9023 95.8895 52.8443 95.8895 52.771C95.8895 52.6856 95.9047 52.6214 95.9353 52.5787C95.9597 52.536 96.0116 52.5146 96.091 52.5146H98.5638ZM101.875 52.8535C101.875 53.2198 101.817 53.5465 101.701 53.8334C101.591 54.1265 101.439 54.3738 101.243 54.5753C101.048 54.7829 100.816 54.9416 100.547 55.0515C100.285 55.1614 99.9977 55.2164 99.6863 55.2164H99.1642L99.1185 54.7401H99.5855C99.903 54.7401 100.178 54.6882 100.41 54.5844C100.642 54.4806 100.831 54.3402 100.978 54.1631C101.13 53.9922 101.24 53.7907 101.307 53.5587C101.381 53.3328 101.417 53.0977 101.417 52.8535V50.3989H101.875V52.8535ZM104.28 51.7819C104.28 51.9956 104.353 52.1727 104.5 52.3131C104.646 52.4474 104.848 52.5146 105.104 52.5146H105.205C105.339 52.5146 105.407 52.594 105.407 52.7527C105.407 52.9176 105.339 53 105.205 53H105.104C104.946 53 104.79 52.9695 104.637 52.9084C104.485 52.8474 104.359 52.7466 104.262 52.6062V52.8535C104.262 53.2198 104.207 53.5465 104.097 53.8334C103.987 54.1265 103.834 54.3738 103.639 54.5753C103.444 54.7829 103.212 54.9416 102.943 55.0515C102.68 55.1614 102.396 55.2164 102.091 55.2164H101.862L101.807 54.7401H102.009C102.326 54.7401 102.598 54.6882 102.824 54.5844C103.056 54.4806 103.245 54.3402 103.392 54.1631C103.538 53.9922 103.645 53.7907 103.712 53.5587C103.785 53.3328 103.822 53.0977 103.822 52.8535V50.3989H104.28V51.7819ZM104.289 49.19H103.611V48.6313H104.289V49.19ZM105.972 52.5146C106.228 52.5146 106.436 52.4444 106.595 52.3039C106.754 52.1635 106.833 51.9773 106.833 51.7453V50.3989H107.282V51.7269C107.282 52.1299 107.163 52.4444 106.925 52.6703C106.693 52.8901 106.384 53 106 53H105.157C105.078 53 105.026 52.9817 105.001 52.945C104.971 52.9023 104.955 52.8443 104.955 52.771C104.955 52.6856 104.971 52.6214 105.001 52.5787C105.026 52.536 105.078 52.5146 105.157 52.5146H105.972ZM106.302 54.6394H105.624V54.0807H106.302V54.6394Z" fill="white"/>
</svg>
